nohup: ignoring input
ffmpeg version 4.4.2-0ubuntu0.22.04.1 Copyright (c) 2000-2021 the FFmpeg developers
  built with gcc 11 (Ubuntu 11.2.0-19ubuntu1)
  configuration: --prefix=/usr --extra-version=0ubuntu0.22.04.1 --toolchain=hardened --libdir=/usr/lib/x86_64-linux-gnu --incdir=/usr/include/x86_64-linux-gnu --arch=amd64 --enable-gpl --disable-stripping --enable-gnutls --enable-ladspa --enable-libaom --enable-libass --enable-libbluray --enable-libbs2b --enable-libcaca --enable-libcdio --enable-libcodec2 --enable-libdav1d --enable-libflite --enable-libfontconfig --enable-libfreetype --enable-libfribidi --enable-libgme --enable-libgsm --enable-libjack --enable-libmp3lame --enable-libmysofa --enable-libopenjpeg --enable-libopenmpt --enable-libopus --enable-libpulse --enable-librabbitmq --enable-librubberband --enable-libshine --enable-libsnappy --enable-libsoxr --enable-libspeex --enable-libsrt --enable-libssh --enable-libtheora --enable-libtwolame --enable-libvidstab --enable-libvorbis --enable-libvpx --enable-libwebp --enable-libx265 --enable-libxml2 --enable-libxvid --enable-libzimg --enable-libzmq --enable-libzvbi --enable-lv2 --enable-omx --enable-openal --enable-opencl --enable-opengl --enable-sdl2 --enable-pocketsphinx --enable-librsvg --enable-libmfx --enable-libdc1394 --enable-libdrm --enable-libiec61883 --enable-chromaprint --enable-frei0r --enable-libx264 --enable-shared
  libavutil      56. 70.100 / 56. 70.100
  libavcodec     58.134.100 / 58.134.100
  libavformat    58. 76.100 / 58. 76.100
  libavdevice    58. 13.100 / 58. 13.100
  libavfilter     7.110.100 /  7.110.100
  libswscale      5.  9.100 /  5.  9.100
  libswresample   3.  9.100 /  3.  9.100
  libpostproc    55.  9.100 / 55.  9.100
Input #0, rawvideo, from 'pipe:':
  Duration: N/A, start: 0.000000, bitrate: 663552 kb/s
  Stream #0:0: Video: rawvideo (BGR[24] / 0x18524742), bgr24, 1280x720, 663552 kb/s, 30 tbr, 30 tbn, 30 tbc
Stream mapping:
  Stream #0:0 -> #0:0 (rawvideo (native) -> h264 (libx264))
[libx264 @ 0x5d5e24889640] using cpu capabilities: MMX2 SSE2Fast SSSE3 SSE4.2 AVX FMA3 BMI2 AVX2
[libx264 @ 0x5d5e24889640] profile High 4:4:4 Predictive, level 3.1, 4:4:4, 8-bit
[libx264 @ 0x5d5e24889640] 264 - core 163 r3060 5db6aa6 - H.264/MPEG-4 AVC codec - Copyleft 2003-2021 - http://www.videolan.org/x264.html - options: cabac=1 ref=1 deblock=1:0:0 analyse=0x3:0x113 me=hex subme=2 psy=1 psy_rd=1.00:0.00 mixed_ref=0 me_range=16 chroma_me=1 trellis=0 8x8dct=1 cqm=0 deadzone=21,11 fast_pskip=1 chroma_qp_offset=6 threads=18 lookahead_threads=5 sliced_threads=0 nr=0 decimate=1 interlaced=0 bluray_compat=0 constrained_intra=0 bframes=3 b_pyramid=2 b_adapt=1 b_bias=0 direct=1 weightb=1 open_gop=0 weightp=1 keyint=250 keyint_min=25 scenecut=40 intra_refresh=0 rc_lookahead=10 rc=crf mbtree=1 crf=23.0 qcomp=0.60 qpmin=0 qpmax=69 qpstep=4 ip_ratio=1.40 aq=1:1.00
Output #0, rtsp, to 'rtsp://localhost:8554/live':
  Metadata:
    encoder         : Lavf58.76.100
  Stream #0:0: Video: h264, yuv444p(tv, progressive), 1280x720, q=2-31, 30 fps, 90k tbn
    Metadata:
      encoder         : Lavc58.134.100 libx264
    Side data:
      cpb: bitrate max/min/avg: 0/0/0 buffer size: 0 vbv_delay: N/A
frame=    1 fps=0.0 q=0.0 size=N/A time=00:00:00.00 bitrate=N/A speed=N/A    frame=   32 fps=0.0 q=0.0 size=N/A time=00:00:00.00 bitrate=N/A speed=   0x    frame=   70 fps= 69 q=29.0 size=N/A time=00:00:01.16 bitrate=N/A speed=1.15x    frame=  109 fps= 72 q=29.0 size=N/A time=00:00:02.46 bitrate=N/A speed=1.62x    frame=  148 fps= 73 q=29.0 size=N/A time=00:00:03.76 bitrate=N/A speed=1.86x    frame=  184 fps= 73 q=29.0 size=N/A time=00:00:04.96 bitrate=N/A speed=1.96x    frame=  221 fps= 73 q=29.0 size=N/A time=00:00:06.20 bitrate=N/A speed=2.04x    frame=  259 fps= 73 q=29.0 size=N/A time=00:00:07.46 bitrate=N/A speed= 2.1x    frame=  299 fps= 74 q=29.0 size=N/A time=00:00:08.80 bitrate=N/A speed=2.17x    frame=  354 fps= 78 q=29.0 size=N/A time=00:00:10.63 bitrate=N/A speed=2.33x    frame=  421 fps= 83 q=29.0 size=N/A time=00:00:12.86 bitrate=N/A speed=2.54x    frame=  487 fps= 87 q=29.0 size=N/A time=00:00:15.06 bitrate=N/A speed= 2.7x    frame=  544 fps= 90 q=29.0 size=N/A time=00:00:16.96 bitrate=N/A speed=2.79x    frame=  587 fps= 89 q=29.0 size=N/A time=00:00:18.40 bitrate=N/A speed=2.79x    frame=  618 fps= 87 q=29.0 size=N/A time=00:00:19.43 bitrate=N/A speed=2.74x    frame=  674 fps= 89 q=29.0 size=N/A time=00:00:21.30 bitrate=N/A speed= 2.8x    frame=  742 fps= 91 q=29.0 size=N/A time=00:00:23.56 bitrate=N/A speed= 2.9x    frame=  788 fps= 91 q=29.0 size=N/A time=00:00:25.10 bitrate=N/A speed=2.91x    frame=  823 fps= 90 q=29.0 size=N/A time=00:00:26.26 bitrate=N/A speed=2.88x    frame=  860 fps= 89 q=29.0 size=N/A time=00:00:27.50 bitrate=N/A speed=2.85x    frame=  896 fps= 88 q=29.0 size=N/A time=00:00:28.70 bitrate=N/A speed=2.83x    frame=  931 fps= 87 q=29.0 size=N/A time=00:00:29.86 bitrate=N/A speed= 2.8x    frame=  963 fps= 86 q=29.0 size=N/A time=00:00:30.93 bitrate=N/A speed=2.77x    frame=  993 fps= 85 q=29.0 size=N/A time=00:00:31.93 bitrate=N/A speed=2.74x    frame= 1023 fps= 84 q=29.0 size=N/A time=00:00:32.93 bitrate=N/A speed= 2.7x    frame= 1057 fps= 83 q=29.0 size=N/A time=00:00:34.06 bitrate=N/A speed=2.68x    frame= 1123 fps= 85 q=29.0 size=N/A time=00:00:36.26 bitrate=N/A speed=2.75x    frame= 1186 fps= 87 q=29.0 size=N/A time=00:00:38.36 bitrate=N/A speed= 2.8x    frame= 1246 fps= 88 q=29.0 size=N/A time=00:00:40.36 bitrate=N/A speed=2.84x    frame= 1306 fps= 89 q=29.0 size=N/A time=00:00:42.36 bitrate=N/A speed=2.88x    frame= 1369 fps= 90 q=29.0 size=N/A time=00:00:44.46 bitrate=N/A speed=2.92x    frame= 1428 fps= 91 q=29.0 size=N/A time=00:00:46.43 bitrate=N/A speed=2.95x    frame= 1492 fps= 92 q=29.0 size=N/A time=00:00:48.56 bitrate=N/A speed=2.99x    frame= 1560 fps= 93 q=29.0 size=N/A time=00:00:50.83 bitrate=N/A speed=3.04x    frame= 1604 fps= 93 q=29.0 size=N/A time=00:00:52.30 bitrate=N/A speed=3.03x    frame= 1642 fps= 93 q=29.0 size=N/A time=00:00:53.56 bitrate=N/A speed=3.02x    frame= 1681 fps= 92 q=29.0 size=N/A time=00:00:54.86 bitrate=N/A speed=3.01x    frame= 1723 fps= 92 q=29.0 size=N/A time=00:00:56.26 bitrate=N/A speed=   3x    frame= 1763 fps= 92 q=29.0 size=N/A time=00:00:57.60 bitrate=N/A speed=2.99x    frame= 1802 fps= 91 q=29.0 size=N/A time=00:00:58.90 bitrate=N/A speed=2.98x    frame= 1842 fps= 91 q=29.0 size=N/A time=00:01:00.23 bitrate=N/A speed=2.97x    frame= 1882 fps= 91 q=29.0 size=N/A time=00:01:01.56 bitrate=N/A speed=2.96x    frame= 1920 fps= 90 q=29.0 size=N/A time=00:01:02.83 bitrate=N/A speed=2.95x    frame= 1958 fps= 90 q=29.0 size=N/A time=00:01:04.10 bitrate=N/A speed=2.94x    frame= 1997 fps= 90 q=29.0 size=N/A time=00:01:05.40 bitrate=N/A speed=2.93x    frame= 2036 fps= 89 q=29.0 size=N/A time=00:01:06.70 bitrate=N/A speed=2.93x    frame= 2077 fps= 89 q=29.0 size=N/A time=00:01:08.06 bitrate=N/A speed=2.92x    frame= 2117 fps= 89 q=29.0 size=N/A time=00:01:09.40 bitrate=N/A speed=2.91x    frame= 2156 fps= 89 q=29.0 size=N/A time=00:01:10.70 bitrate=N/A speed=2.91x    frame= 2196 fps= 88 q=29.0 size=N/A time=00:01:12.03 bitrate=N/A speed= 2.9x    frame= 2236 fps= 88 q=29.0 size=N/A time=00:01:13.36 bitrate=N/A speed=2.89x    frame= 2275 fps= 88 q=29.0 size=N/A time=00:01:14.66 bitrate=N/A speed=2.89x    frame= 2315 fps= 88 q=29.0 size=N/A time=00:01:16.00 bitrate=N/A speed=2.88x    frame= 2353 fps= 88 q=29.0 size=N/A time=00:01:17.26 bitrate=N/A speed=2.88x    frame= 2393 fps= 87 q=29.0 size=N/A time=00:01:18.60 bitrate=N/A speed=2.87x    frame= 2434 fps= 87 q=29.0 size=N/A time=00:01:19.96 bitrate=N/A speed=2.87x    frame= 2472 fps= 87 q=29.0 size=N/A time=00:01:21.23 bitrate=N/A speed=2.86x    frame= 2537 fps= 88 q=29.0 size=N/A time=00:01:23.40 bitrate=N/A speed=2.89x    frame= 2603 fps= 89 q=29.0 size=N/A time=00:01:25.60 bitrate=N/A speed=2.91x    frame= 2668 fps= 89 q=29.0 size=N/A time=00:01:27.76 bitrate=N/A speed=2.94x    frame= 2734 fps= 90 q=29.0 size=N/A time=00:01:29.96 bitrate=N/A speed=2.96x    frame= 2799 fps= 91 q=29.0 size=N/A time=00:01:32.13 bitrate=N/A speed=2.98x    frame= 2863 fps= 91 q=29.0 size=N/A time=00:01:34.26 bitrate=N/A speed=   3x    frame= 2906 fps= 91 q=29.0 size=N/A time=00:01:35.70 bitrate=N/A speed=   3x    frame= 2945 fps= 91 q=29.0 size=N/A time=00:01:37.00 bitrate=N/A speed=2.99x    frame= 2986 fps= 91 q=29.0 size=N/A time=00:01:38.36 bitrate=N/A speed=2.99x    frame= 3025 fps= 90 q=29.0 size=N/A time=00:01:39.66 bitrate=N/A speed=2.98x    frame= 3063 fps= 90 q=29.0 size=N/A time=00:01:40.93 bitrate=N/A speed=2.97x    frame= 3100 fps= 90 q=29.0 size=N/A time=00:01:42.16 bitrate=N/A speed=2.97x    frame= 3148 fps= 90 q=29.0 size=N/A time=00:01:43.76 bitrate=N/A speed=2.97x    frame= 3212 fps= 91 q=29.0 size=N/A time=00:01:45.90 bitrate=N/A speed=2.99x    frame= 3278 fps= 91 q=29.0 size=N/A time=00:01:48.10 bitrate=N/A speed=3.01x    frame= 3344 fps= 92 q=29.0 size=N/A time=00:01:50.30 bitrate=N/A speed=3.02x    frame= 3399 fps= 92 q=29.0 size=N/A time=00:01:52.13 bitrate=N/A speed=3.03x    frame= 3436 fps= 92 q=29.0 size=N/A time=00:01:53.36 bitrate=N/A speed=3.03x    frame= 3476 fps= 92 q=29.0 size=N/A time=00:01:54.70 bitrate=N/A speed=3.02x    frame= 3513 fps= 91 q=29.0 size=N/A time=00:01:55.93 bitrate=N/A speed=3.01x    frame= 3549 fps= 91 q=29.0 size=N/A time=00:01:57.13 bitrate=N/A speed=   3x    frame= 3585 fps= 91 q=29.0 size=N/A time=00:01:58.33 bitrate=N/A speed=   3x    frame= 3624 fps= 91 q=29.0 size=N/A time=00:01:59.63 bitrate=N/A speed=2.99x    frame= 3662 fps= 90 q=29.0 size=N/A time=00:02:00.90 bitrate=N/A speed=2.98x    frame= 3698 fps= 90 q=29.0 size=N/A time=00:02:02.10 bitrate=N/A speed=2.98x    frame= 3737 fps= 90 q=29.0 size=N/A time=00:02:03.40 bitrate=N/A speed=2.97x    frame= 3774 fps= 90 q=29.0 size=N/A time=00:02:04.63 bitrate=N/A speed=2.97x    frame= 3811 fps= 90 q=29.0 size=N/A time=00:02:05.86 bitrate=N/A speed=2.96x    frame= 3847 fps= 89 q=29.0 size=N/A time=00:02:07.06 bitrate=N/A speed=2.95x    frame= 3909 fps= 90 q=29.0 size=N/A time=00:02:09.13 bitrate=N/A speed=2.97x    frame= 3972 fps= 90 q=29.0 size=N/A time=00:02:11.23 bitrate=N/A speed=2.98x    frame= 4037 fps= 91 q=29.0 size=N/A time=00:02:13.40 bitrate=N/A speed=2.99x    frame= 4101 fps= 91 q=29.0 size=N/A time=00:02:15.53 bitrate=N/A speed=3.01x    frame= 4164 fps= 91 q=29.0 size=N/A time=00:02:17.63 bitrate=N/A speed=3.02x    frame= 4229 fps= 92 q=29.0 size=N/A time=00:02:19.80 bitrate=N/A speed=3.04x    frame= 4275 fps= 92 q=29.0 size=N/A time=00:02:21.33 bitrate=N/A speed=3.03x    frame= 4313 fps= 92 q=29.0 size=N/A time=00:02:22.60 bitrate=N/A speed=3.03x    frame= 4351 fps= 91 q=29.0 size=N/A time=00:02:23.86 bitrate=N/A speed=3.02x    frame= 4388 fps= 91 q=29.0 size=N/A time=00:02:25.10 bitrate=N/A speed=3.02x    frame= 4426 fps= 91 q=29.0 size=N/A time=00:02:26.36 bitrate=N/A speed=3.01x    frame= 4464 fps= 91 q=29.0 size=N/A time=00:02:27.63 bitrate=N/A speed=3.01x    frame= 4503 fps= 91 q=29.0 size=N/A time=00:02:28.93 bitrate=N/A speed=   3x    frame= 4542 fps= 91 q=29.0 size=N/A time=00:02:30.23 bitrate=N/A speed=   3x    frame= 4588 fps= 91 q=29.0 size=N/A time=00:02:31.76 bitrate=N/A speed=   3x    frame= 4654 fps= 91 q=29.0 size=N/A time=00:02:33.96 bitrate=N/A speed=3.01x    frame= 4718 fps= 91 q=29.0 size=N/A time=00:02:36.10 bitrate=N/A speed=3.02x    frame= 4780 fps= 92 q=29.0 size=N/A time=00:02:38.16 bitrate=N/A speed=3.03x    frame= 4834 fps= 92 q=29.0 size=N/A time=00:02:39.96 bitrate=N/A speed=3.04x    frame= 4870 fps= 92 q=29.0 size=N/A time=00:02:41.16 bitrate=N/A speed=3.03x    frame= 4904 fps= 91 q=29.0 size=N/A time=00:02:42.30 bitrate=N/A speed=3.02x    frame= 4939 fps= 91 q=29.0 size=N/A time=00:02:43.46 bitrate=N/A speed=3.02x    frame= 4975 fps= 91 q=29.0 size=N/A time=00:02:44.66 bitrate=N/A speed=3.01x    frame= 5011 fps= 91 q=29.0 size=N/A time=00:02:45.86 bitrate=N/A speed=3.01x    frame= 5045 fps= 91 q=29.0 size=N/A time=00:02:47.00 bitrate=N/A speed=   3x    frame= 5082 fps= 90 q=29.0 size=N/A time=00:02:48.23 bitrate=N/A speed=2.99x    frame= 5117 fps= 90 q=29.0 size=N/A time=00:02:49.40 bitrate=N/A speed=2.99x    frame= 5153 fps= 90 q=29.0 size=N/A time=00:02:50.60 bitrate=N/A speed=2.98x    frame= 5187 fps= 90 q=29.0 size=N/A time=00:02:51.73 bitrate=N/A speed=2.97x    frame= 5244 fps= 90 q=29.0 size=N/A time=00:02:53.63 bitrate=N/A speed=2.98x    frame= 5303 fps= 90 q=29.0 size=N/A time=00:02:55.60 bitrate=N/A speed=2.99x    frame= 5341 fps= 90 q=29.0 size=N/A time=00:02:56.86 bitrate=N/A speed=2.99x    frame= 5376 fps= 90 q=29.0 size=N/A time=00:02:58.03 bitrate=N/A speed=2.98x    frame= 5426 fps= 90 q=29.0 size=N/A time=00:02:59.70 bitrate=N/A speed=2.98x    frame= 5482 fps= 90 q=29.0 size=N/A time=00:03:01.56 bitrate=N/A speed=2.99x    frame= 5524 fps= 90 q=29.0 size=N/A time=00:03:02.96 bitrate=N/A speed=2.99x    frame= 5561 fps= 90 q=29.0 size=N/A time=00:03:04.20 bitrate=N/A speed=2.98x    frame= 5597 fps= 90 q=29.0 size=N/A time=00:03:05.40 bitrate=N/A speed=2.98x    frame= 5631 fps= 90 q=29.0 size=N/A time=00:03:06.53 bitrate=N/A speed=2.97x    frame= 5667 fps= 90 q=29.0 size=N/A time=00:03:07.73 bitrate=N/A speed=2.97x    frame= 5702 fps= 89 q=29.0 size=N/A time=00:03:08.90 bitrate=N/A speed=2.96x    frame= 5747 fps= 89 q=29.0 size=N/A time=00:03:10.40 bitrate=N/A speed=2.96x    frame= 5805 fps= 90 q=29.0 size=N/A time=00:03:12.33 bitrate=N/A speed=2.97x    frame= 5856 fps= 90 q=29.0 size=N/A time=00:03:14.03 bitrate=N/A speed=2.97x    frame= 5891 fps= 90 q=29.0 size=N/A time=00:03:15.20 bitrate=N/A speed=2.97x    frame= 5929 fps= 89 q=29.0 size=N/A time=00:03:16.46 bitrate=N/A speed=2.96x    frame= 5989 fps= 90 q=29.0 size=N/A time=00:03:18.46 bitrate=N/A speed=2.97x    frame= 6043 fps= 90 q=29.0 size=N/A time=00:03:20.26 bitrate=N/A speed=2.97x    frame= 6078 fps= 90 q=29.0 size=N/A time=00:03:21.43 bitrate=N/A speed=2.97x    frame= 6113 fps= 89 q=29.0 size=N/A time=00:03:22.60 bitrate=N/A speed=2.97x    frame= 6148 fps= 89 q=29.0 size=N/A time=00:03:23.76 bitrate=N/A speed=2.96x    frame= 6183 fps= 89 q=29.0 size=N/A time=00:03:24.93 bitrate=N/A speed=2.96x    frame= 6218 fps= 89 q=29.0 size=N/A time=00:03:26.10 bitrate=N/A speed=2.95x    frame= 6253 fps= 89 q=29.0 size=N/A time=00:03:27.26 bitrate=N/A speed=2.95x    frame= 6310 fps= 89 q=29.0 size=N/A time=00:03:29.16 bitrate=N/A speed=2.95x    frame= 6369 fps= 89 q=29.0 size=N/A time=00:03:31.13 bitrate=N/A speed=2.96x    frame= 6405 fps= 89 q=29.0 size=N/A time=00:03:32.33 bitrate=N/A speed=2.95x    frame= 6440 fps= 89 q=29.0 size=N/A time=00:03:33.50 bitrate=N/A speed=2.95x    frame= 6474 fps= 89 q=29.0 size=N/A time=00:03:34.63 bitrate=N/A speed=2.94x    frame= 6510 fps= 89 q=29.0 size=N/A time=00:03:35.83 bitrate=N/A speed=2.94x    frame= 6547 fps= 89 q=29.0 size=N/A time=00:03:37.06 bitrate=N/A speed=2.94x    frame= 6583 fps= 88 q=29.0 size=N/A time=00:03:38.26 bitrate=N/A speed=2.93x    frame= 6635 fps= 89 q=29.0 size=N/A time=00:03:40.00 bitrate=N/A speed=2.94x    frame= 6698 fps= 89 q=29.0 size=N/A time=00:03:42.10 bitrate=N/A speed=2.94x    frame= 6741 fps= 89 q=29.0 size=N/A time=00:03:43.53 bitrate=N/A speed=2.94x    frame= 6775 fps= 89 q=29.0 size=N/A time=00:03:44.66 bitrate=N/A speed=2.94x    frame= 6808 fps= 88 q=29.0 size=N/A time=00:03:45.76 bitrate=N/A speed=2.93x    frame= 6843 fps= 88 q=29.0 size=N/A time=00:03:46.93 bitrate=N/A speed=2.93x    frame= 6879 fps= 88 q=29.0 size=N/A time=00:03:48.13 bitrate=N/A speed=2.93x    frame= 6914 fps= 88 q=29.0 size=N/A time=00:03:49.30 bitrate=N/A speed=2.92x    frame= 6957 fps= 88 q=29.0 size=N/A time=00:03:50.73 bitrate=N/A speed=2.92x    frame= 7018 fps= 88 q=29.0 size=N/A time=00:03:52.76 bitrate=N/A speed=2.93x    frame= 7072 fps= 88 q=29.0 size=N/A time=00:03:54.56 bitrate=N/A speed=2.93x    frame= 7108 fps= 88 q=29.0 size=N/A time=00:03:55.76 bitrate=N/A speed=2.93x    frame= 7147 fps= 88 q=29.0 size=N/A time=00:03:57.06 bitrate=N/A speed=2.93x    frame= 7208 fps= 88 q=29.0 size=N/A time=00:03:59.10 bitrate=N/A speed=2.93x    frame= 7264 fps= 89 q=29.0 size=N/A time=00:04:00.96 bitrate=N/A speed=2.94x    frame= 7299 fps= 88 q=29.0 size=N/A time=00:04:02.13 bitrate=N/A speed=2.93x    frame= 7332 fps= 88 q=29.0 size=N/A time=00:04:03.23 bitrate=N/A speed=2.93x    frame= 7368 fps= 88 q=29.0 size=N/A time=00:04:04.43 bitrate=N/A speed=2.93x    frame= 7402 fps= 88 q=29.0 size=N/A time=00:04:05.56 bitrate=N/A speed=2.92x    frame= 7435 fps= 88 q=29.0 size=N/A time=00:04:06.66 bitrate=N/A speed=2.92x    frame= 7467 fps= 88 q=29.0 size=N/A time=00:04:07.73 bitrate=N/A speed=2.91x    frame= 7523 fps= 88 q=29.0 size=N/A time=00:04:09.60 bitrate=N/A speed=2.92x    frame= 7582 fps= 88 q=29.0 size=N/A time=00:04:11.56 bitrate=N/A speed=2.92x    frame= 7619 fps= 88 q=29.0 size=N/A time=00:04:12.80 bitrate=N/A speed=2.92x    frame= 7657 fps= 88 q=29.0 size=N/A time=00:04:14.06 bitrate=N/A speed=2.92x    frame= 7695 fps= 88 q=29.0 size=N/A time=00:04:15.33 bitrate=N/A speed=2.92x    frame= 7734 fps= 88 q=29.0 size=N/A time=00:04:16.63 bitrate=N/A speed=2.91x    frame= 7770 fps= 88 q=29.0 size=N/A time=00:04:17.83 bitrate=N/A speed=2.91x    frame= 7809 fps= 88 q=29.0 size=N/A time=00:04:19.13 bitrate=N/A speed=2.91x    frame= 7863 fps= 88 q=29.0 size=N/A time=00:04:20.93 bitrate=N/A speed=2.91x    frame= 7926 fps= 88 q=29.0 size=N/A time=00:04:23.03 bitrate=N/A speed=2.92x    frame= 7973 fps= 88 q=29.0 size=N/A time=00:04:24.60 bitrate=N/A speed=2.92x    frame= 8011 fps= 88 q=29.0 size=N/A time=00:04:25.86 bitrate=N/A speed=2.92x    frame= 8045 fps= 88 q=29.0 size=N/A time=00:04:27.00 bitrate=N/A speed=2.91x    frame= 8081 fps= 88 q=29.0 size=N/A time=00:04:28.20 bitrate=N/A speed=2.91x    frame= 8116 fps= 88 q=29.0 size=N/A time=00:04:29.36 bitrate=N/A speed=2.91x    frame= 8152 fps= 88 q=29.0 size=N/A time=00:04:30.56 bitrate=N/A speed= 2.9x    frame= 8197 fps= 88 q=29.0 size=N/A time=00:04:32.06 bitrate=N/A speed= 2.9x    frame= 8260 fps= 88 q=29.0 size=N/A time=00:04:34.16 bitrate=N/A speed=2.91x    frame= 8314 fps= 88 q=29.0 size=N/A time=00:04:35.96 bitrate=N/A speed=2.91x    frame= 8351 fps= 88 q=29.0 size=N/A time=00:04:37.20 bitrate=N/A speed=2.91x    frame= 8392 fps= 88 q=29.0 size=N/A time=00:04:38.56 bitrate=N/A speed=2.91x    frame= 8454 fps= 88 q=29.0 size=N/A time=00:04:40.63 bitrate=N/A speed=2.92x    frame= 8511 fps= 88 q=29.0 size=N/A time=00:04:42.53 bitrate=N/A speed=2.92x    frame= 8546 fps= 88 q=29.0 size=N/A time=00:04:43.70 bitrate=N/A speed=2.92x    frame= 8583 fps= 88 q=29.0 size=N/A time=00:04:44.93 bitrate=N/A speed=2.92x    frame= 8618 fps= 88 q=29.0 size=N/A time=00:04:46.10 bitrate=N/A speed=2.91x    frame= 8654 fps= 88 q=29.0 size=N/A time=00:04:47.30 bitrate=N/A speed=2.91x    frame= 8692 fps= 88 q=29.0 size=N/A time=00:04:48.56 bitrate=N/A speed=2.91x    frame= 8731 fps= 88 q=29.0 size=N/A time=00:04:49.86 bitrate=N/A speed=2.91x    frame= 8796 fps= 88 q=29.0 size=N/A time=00:04:52.03 bitrate=N/A speed=2.91x    frame= 8862 fps= 88 q=29.0 size=N/A time=00:04:54.23 bitrate=N/A speed=2.92x    frame= 8902 fps= 88 q=29.0 size=N/A time=00:04:55.56 bitrate=N/A speed=2.92x    frame= 8939 fps= 88 q=29.0 size=N/A time=00:04:56.80 bitrate=N/A speed=2.92x    frame= 8975 fps= 88 q=29.0 size=N/A time=00:04:58.00 bitrate=N/A speed=2.91x    frame= 9013 fps= 88 q=29.0 size=N/A time=00:04:59.26 bitrate=N/A speed=2.91x    frame= 9047 fps= 88 q=29.0 size=N/A time=00:05:00.40 bitrate=N/A speed=2.91x    frame= 9086 fps= 88 q=29.0 size=N/A time=00:05:01.70 bitrate=N/A speed=2.91x    frame= 9142 fps= 88 q=29.0 size=N/A time=00:05:03.56 bitrate=N/A speed=2.91x    frame= 9209 fps= 88 q=29.0 size=N/A time=00:05:05.80 bitrate=N/A speed=2.92x    frame= 9253 fps= 88 q=29.0 size=N/A time=00:05:07.26 bitrate=N/A speed=2.92x    frame= 9286 fps= 88 q=29.0 size=N/A time=00:05:08.36 bitrate=N/A speed=2.91x    frame= 9316 fps= 88 q=29.0 size=N/A time=00:05:09.36 bitrate=N/A speed=2.91x    frame= 9343 fps= 87 q=29.0 size=N/A time=00:05:10.26 bitrate=N/A speed= 2.9x    frame= 9373 fps= 87 q=29.0 size=N/A time=00:05:11.26 bitrate=N/A speed= 2.9x    frame= 9410 fps= 87 q=29.0 size=N/A time=00:05:12.50 bitrate=N/A speed= 2.9x    frame= 9444 fps= 87 q=29.0 size=N/A time=00:05:13.63 bitrate=N/A speed=2.89x    frame= 9480 fps= 87 q=29.0 size=N/A time=00:05:14.83 bitrate=N/A speed=2.89x    frame= 9526 fps= 87 q=29.0 size=N/A time=00:05:16.36 bitrate=N/A speed=2.89x    frame= 9592 fps= 87 q=29.0 size=N/A time=00:05:18.56 bitrate=N/A speed= 2.9x    frame= 9657 fps= 87 q=29.0 size=N/A time=00:05:20.73 bitrate=N/A speed=2.91x    frame= 9721 fps= 88 q=29.0 size=N/A time=00:05:22.86 bitrate=N/A speed=2.91x    frame= 9777 fps= 88 q=29.0 size=N/A time=00:05:24.73 bitrate=N/A speed=2.92x    frame= 9813 fps= 88 q=29.0 size=N/A time=00:05:25.93 bitrate=N/A speed=2.91x    frame= 9849 fps= 88 q=29.0 size=N/A time=00:05:27.13 bitrate=N/A speed=2.91x    frame= 9883 fps= 88 q=29.0 size=N/A time=00:05:28.26 bitrate=N/A speed=2.91x    frame= 9918 fps= 87 q=29.0 size=N/A time=00:05:29.43 bitrate=N/A speed= 2.9x    frame= 9954 fps= 87 q=29.0 size=N/A time=00:05:30.63 bitrate=N/A speed= 2.9x    frame= 9990 fps= 87 q=29.0 size=N/A time=00:05:31.83 bitrate=N/A speed= 2.9x    frame=10023 fps= 87 q=29.0 size=N/A time=00:05:32.93 bitrate=N/A speed= 2.9x    frame=10059 fps= 87 q=29.0 size=N/A time=00:05:34.13 bitrate=N/A speed=2.89x    frame=10117 fps= 87 q=29.0 size=N/A time=00:05:36.06 bitrate=N/A speed= 2.9x    frame=10180 fps= 87 q=29.0 size=N/A time=00:05:38.16 bitrate=N/A speed= 2.9x    frame=10212 fps= 87 q=29.0 size=N/A time=00:05:39.23 bitrate=N/A speed= 2.9x    frame=10277 fps= 87 q=29.0 size=N/A time=00:05:41.40 bitrate=N/A speed=2.91x    frame=10343 fps= 88 q=29.0 size=N/A time=00:05:43.60 bitrate=N/A speed=2.91x    frame=10379 fps= 88 q=29.0 size=N/A time=00:05:44.80 bitrate=N/A speed=2.91x    frame=10412 fps= 87 q=29.0 size=N/A time=00:05:45.90 bitrate=N/A speed=2.91x    frame=10444 fps= 87 q=29.0 size=N/A time=00:05:46.96 bitrate=N/A speed= 2.9x    frame=10478 fps= 87 q=29.0 size=N/A time=00:05:48.10 bitrate=N/A speed= 2.9x    frame=10534 fps= 87 q=29.0 size=N/A time=00:05:49.96 bitrate=N/A speed= 2.9x    frame=10604 fps= 88 q=29.0 size=N/A time=00:05:52.30 bitrate=N/A speed=2.91x    frame=10653 fps= 88 q=29.0 size=N/A time=00:05:53.93 bitrate=N/A speed=2.91x    frame=10687 fps= 88 q=29.0 size=N/A time=00:05:55.06 bitrate=N/A speed=2.91x    frame=10732 fps= 88 q=29.0 size=N/A time=00:05:56.56 bitrate=N/A speed=2.91x    frame=10800 fps= 88 q=29.0 size=N/A time=00:05:58.83 bitrate=N/A speed=2.92x    frame=10850 fps= 88 q=29.0 size=N/A time=00:06:00.50 bitrate=N/A speed=2.92x    frame=10878 fps= 88 q=29.0 size=N/A time=00:06:01.43 bitrate=N/A speed=2.91x    frame=10912 fps= 88 q=29.0 size=N/A time=00:06:02.56 bitrate=N/A speed=2.91x    frame=10973 fps= 88 q=29.0 size=N/A time=00:06:04.60 bitrate=N/A speed=2.92x    frame=11017 fps= 88 q=29.0 size=N/A time=00:06:06.06 bitrate=N/A speed=2.92x    frame=11043 fps= 88 q=29.0 size=N/A time=00:06:06.93 bitrate=N/A speed=2.91x    frame=11069 fps= 87 q=29.0 size=N/A time=00:06:07.80 bitrate=N/A speed=2.91x    frame=11115 fps= 87 q=29.0 size=N/A time=00:06:09.33 bitrate=N/A speed=2.91x    frame=11167 fps= 88 q=29.0 size=N/A time=00:06:11.06 bitrate=N/A speed=2.91x    frame=11224 fps= 88 q=29.0 size=N/A time=00:06:12.96 bitrate=N/A speed=2.91x    frame=11279 fps= 88 q=29.0 size=N/A time=00:06:14.80 bitrate=N/A speed=2.91x    frame=11318 fps= 88 q=29.0 size=N/A time=00:06:16.10 bitrate=N/A speed=2.91x    frame=11355 fps= 88 q=29.0 size=N/A time=00:06:17.33 bitrate=N/A speed=2.91x    frame=11392 fps= 88 q=29.0 size=N/A time=00:06:18.56 bitrate=N/A speed=2.91x    frame=11430 fps= 87 q=29.0 size=N/A time=00:06:19.83 bitrate=N/A speed=2.91x    frame=11469 fps= 87 q=29.0 size=N/A time=00:06:21.13 bitrate=N/A speed=2.91x    frame=11506 fps= 87 q=29.0 size=N/A time=00:06:22.36 bitrate=N/A speed= 2.9x    frame=11544 fps= 87 q=29.0 size=N/A time=00:06:23.63 bitrate=N/A speed= 2.9x    frame=11584 fps= 87 q=29.0 size=N/A time=00:06:24.96 bitrate=N/A speed= 2.9x    frame=11621 fps= 87 q=29.0 size=N/A time=00:06:26.20 bitrate=N/A speed= 2.9x    frame=11658 fps= 87 q=29.0 size=N/A time=00:06:27.43 bitrate=N/A speed= 2.9x    frame=11696 fps= 87 q=29.0 size=N/A time=00:06:28.70 bitrate=N/A speed= 2.9x    frame=11734 fps= 87 q=29.0 size=N/A time=00:06:29.96 bitrate=N/A speed= 2.9x    frame=11771 fps= 87 q=29.0 size=N/A time=00:06:31.20 bitrate=N/A speed=2.89x    frame=11810 fps= 87 q=29.0 size=N/A time=00:06:32.50 bitrate=N/A speed=2.89x    frame=11849 fps= 87 q=29.0 size=N/A time=00:06:33.80 bitrate=N/A speed=2.89x    frame=11888 fps= 87 q=29.0 size=N/A time=00:06:35.10 bitrate=N/A speed=2.89x    frame=11927 fps= 87 q=29.0 size=N/A time=00:06:36.40 bitrate=N/A speed=2.89x    frame=11973 fps= 87 q=29.0 size=N/A time=00:06:37.93 bitrate=N/A speed=2.89x    frame=12037 fps= 87 q=29.0 size=N/A time=00:06:40.06 bitrate=N/A speed=2.89x    frame=12101 fps= 87 q=29.0 size=N/A time=00:06:42.20 bitrate=N/A speed= 2.9x    frame=12165 fps= 87 q=29.0 size=N/A time=00:06:44.33 bitrate=N/A speed= 2.9x    frame=12229 fps= 88 q=29.0 size=N/A time=00:06:46.46 bitrate=N/A speed=2.91x    frame=12293 fps= 88 q=29.0 size=N/A time=00:06:48.60 bitrate=N/A speed=2.91x    frame=12356 fps= 88 q=29.0 size=N/A time=00:06:50.70 bitrate=N/A speed=2.92x    frame=12395 fps= 88 q=29.0 size=N/A time=00:06:52.00 bitrate=N/A speed=2.92x    frame=12435 fps= 88 q=29.0 size=N/A time=00:06:53.33 bitrate=N/A speed=2.92x    frame=12472 fps= 88 q=29.0 size=N/A time=00:06:54.56 bitrate=N/A speed=2.91x    frame=12510 fps= 88 q=29.0 size=N/A time=00:06:55.83 bitrate=N/A speed=2.91x    frame=12547 fps= 88 q=29.0 size=N/A time=00:06:57.06 bitrate=N/A speed=2.91x    frame=12584 fps= 88 q=29.0 size=N/A time=00:06:58.30 bitrate=N/A speed=2.91x    frame=12640 fps= 88 q=29.0 size=N/A time=00:07:00.16 bitrate=N/A speed=2.91x    frame=12704 fps= 88 q=29.0 size=N/A time=00:07:02.30 bitrate=N/A speed=2.92x    frame=12769 fps= 88 q=29.0 size=N/A time=00:07:04.46 bitrate=N/A speed=2.92x    frame=12833 fps= 88 q=29.0 size=N/A time=00:07:06.60 bitrate=N/A speed=2.93x    frame=12877 fps= 88 q=29.0 size=N/A time=00:07:08.06 bitrate=N/A speed=2.93x    frame=12914 fps= 88 q=29.0 size=N/A time=00:07:09.30 bitrate=N/A speed=2.92x    frame=12951 fps= 88 q=29.0 size=N/A time=00:07:10.53 bitrate=N/A speed=2.92x    frame=12989 fps= 88 q=29.0 size=N/A time=00:07:11.80 bitrate=N/A speed=2.92x    frame=13025 fps= 88 q=29.0 size=N/A time=00:07:13.00 bitrate=N/A speed=2.92x    frame=13065 fps= 88 q=29.0 size=N/A time=00:07:14.33 bitrate=N/A speed=2.92x    frame=13104 fps= 88 q=29.0 size=N/A time=00:07:15.63 bitrate=N/A speed=2.92x    frame=13145 fps= 88 q=29.0 size=N/A time=00:07:17.00 bitrate=N/A speed=2.92x    frame=13184 fps= 88 q=29.0 size=N/A time=00:07:18.30 bitrate=N/A speed=2.92x    frame=13224 fps= 88 q=29.0 size=N/A time=00:07:19.63 bitrate=N/A speed=2.91x    frame=13264 fps= 88 q=29.0 size=N/A time=00:07:20.96 bitrate=N/A speed=2.91x    frame=13304 fps= 88 q=29.0 size=N/A time=00:07:22.30 bitrate=N/A speed=2.91x    frame=13349 fps= 88 q=29.0 size=N/A time=00:07:23.80 bitrate=N/A speed=2.91x    frame=13415 fps= 88 q=29.0 size=N/A time=00:07:26.00 bitrate=N/A speed=2.92x    frame=13476 fps= 88 q=29.0 size=N/A time=00:07:28.03 bitrate=N/A speed=2.92x    frame=13512 fps= 88 q=29.0 size=N/A time=00:07:29.23 bitrate=N/A speed=2.92x    frame=13553 fps= 88 q=29.0 size=N/A time=00:07:30.60 bitrate=N/A speed=2.92x    frame=13620 fps= 88 q=29.0 size=N/A time=00:07:32.83 bitrate=N/A speed=2.92x    frame=13684 fps= 88 q=29.0 size=N/A time=00:07:34.96 bitrate=N/A speed=2.93x    frame=13721 fps= 88 q=29.0 size=N/A time=00:07:36.20 bitrate=N/A speed=2.93x    frame=13759 fps= 88 q=29.0 size=N/A time=00:07:37.46 bitrate=N/A speed=2.92x    frame=13798 fps= 88 q=29.0 size=N/A time=00:07:38.76 bitrate=N/A speed=2.92x    frame=13838 fps= 88 q=29.0 size=N/A time=00:07:40.10 bitrate=N/A speed=2.92x    frame=13877 fps= 88 q=29.0 size=N/A time=00:07:41.40 bitrate=N/A speed=2.92x    frame=13916 fps= 88 q=29.0 size=N/A time=00:07:42.70 bitrate=N/A speed=2.92x    frame=13982 fps= 88 q=29.0 size=N/A time=00:07:44.90 bitrate=N/A speed=2.92x    frame=14048 fps= 88 q=29.0 size=N/A time=00:07:47.10 bitrate=N/A speed=2.93x    frame=14113 fps= 88 q=29.0 size=N/A time=00:07:49.26 bitrate=N/A speed=2.93x    frame=14176 fps= 88 q=29.0 size=N/A time=00:07:51.36 bitrate=N/A speed=2.94x    frame=14215 fps= 88 q=29.0 size=N/A time=00:07:52.66 bitrate=N/A speed=2.94x    frame=14254 fps= 88 q=29.0 size=N/A time=00:07:53.96 bitrate=N/A speed=2.93x    frame=14292 fps= 88 q=29.0 size=N/A time=00:07:55.23 bitrate=N/A speed=2.93x    frame=14331 fps= 88 q=29.0 size=N/A time=00:07:56.53 bitrate=N/A speed=2.93x    frame=14368 fps= 88 q=29.0 size=N/A time=00:07:57.76 bitrate=N/A speed=2.93x    frame=14409 fps= 88 q=29.0 size=N/A time=00:07:59.13 bitrate=N/A speed=2.93x    frame=14446 fps= 88 q=29.0 size=N/A time=00:08:00.36 bitrate=N/A speed=2.93x    frame=14484 fps= 88 q=29.0 size=N/A time=00:08:01.63 bitrate=N/A speed=2.93x    frame=14521 fps= 88 q=29.0 size=N/A time=00:08:02.86 bitrate=N/A speed=2.93x    frame=14558 fps= 88 q=29.0 size=N/A time=00:08:04.10 bitrate=N/A speed=2.92x    frame=14597 fps= 88 q=29.0 size=N/A time=00:08:05.40 bitrate=N/A speed=2.92x    frame=14634 fps= 88 q=29.0 size=N/A time=00:08:06.63 bitrate=N/A speed=2.92x    frame=14674 fps= 88 q=29.0 size=N/A time=00:08:07.96 bitrate=N/A speed=2.92x    frame=14739 fps= 88 q=29.0 size=N/A time=00:08:10.13 bitrate=N/A speed=2.92x    frame=14799 fps= 88 q=29.0 size=N/A time=00:08:12.13 bitrate=N/A speed=2.93x    frame=14838 fps= 88 q=29.0 size=N/A time=00:08:13.43 bitrate=N/A speed=2.93x    frame=14875 fps= 88 q=29.0 size=N/A time=00:08:14.66 bitrate=N/A speed=2.93x    frame=14938 fps= 88 q=29.0 size=N/A time=00:08:16.76 bitrate=N/A speed=2.93x    frame=15002 fps= 88 q=29.0 size=N/A time=00:08:18.90 bitrate=N/A speed=2.93x    frame=15039 fps= 88 q=29.0 size=N/A time=00:08:20.13 bitrate=N/A speed=2.93x    frame=15077 fps= 88 q=29.0 size=N/A time=00:08:21.40 bitrate=N/A speed=2.93x    frame=15113 fps= 88 q=29.0 size=N/A time=00:08:22.60 bitrate=N/A speed=2.93x    frame=15150 fps= 88 q=29.0 size=N/A time=00:08:23.83 bitrate=N/A speed=2.93x    frame=15185 fps= 88 q=29.0 size=N/A time=00:08:25.00 bitrate=N/A speed=2.93x    frame=15223 fps= 88 q=29.0 size=N/A time=00:08:26.26 bitrate=N/A speed=2.92x    frame=15275 fps= 88 q=29.0 size=N/A time=00:08:28.00 bitrate=N/A speed=2.93x    frame=15337 fps= 88 q=29.0 size=N/A time=00:08:30.06 bitrate=N/A speed=2.93x    frame=15403 fps= 88 q=29.0 size=N/A time=00:08:32.26 bitrate=N/A speed=2.93x    frame=15470 fps= 88 q=29.0 size=N/A time=00:08:34.50 bitrate=N/A speed=2.94x    frame=15518 fps= 88 q=29.0 size=N/A time=00:08:36.10 bitrate=N/A speed=2.94x    frame=15555 fps= 88 q=29.0 size=N/A time=00:08:37.33 bitrate=N/A speed=2.94x    frame=15590 fps= 88 q=29.0 size=N/A time=00:08:38.50 bitrate=N/A speed=2.93x    frame=15628 fps= 88 q=29.0 size=N/A time=00:08:39.76 bitrate=N/A speed=2.93x    frame=15663 fps= 88 q=29.0 size=N/A time=00:08:40.93 bitrate=N/A speed=2.93x    frame=15703 fps= 88 q=29.0 size=N/A time=00:08:42.26 bitrate=N/A speed=2.93x    frame=15742 fps= 88 q=29.0 size=N/A time=00:08:43.56 bitrate=N/A speed=2.93x    frame=15782 fps= 88 q=29.0 size=N/A time=00:08:44.90 bitrate=N/A speed=2.93x    frame=15820 fps= 88 q=29.0 size=N/A time=00:08:46.16 bitrate=N/A speed=2.93x    frame=15858 fps= 88 q=29.0 size=N/A time=00:08:47.43 bitrate=N/A speed=2.93x    frame=15898 fps= 88 q=29.0 size=N/A time=00:08:48.76 bitrate=N/A speed=2.93x    frame=15915 fps= 88 q=-1.0 Lsize=N/A time=00:08:50.40 bitrate=N/A speed=2.93x    
video:84209kB audio:0kB subtitle:0kB other streams:0kB global headers:0kB muxing overhead: unknown
[libx264 @ 0x5d5e24889640] frame I:64    Avg QP:21.57  size:122680
[libx264 @ 0x5d5e24889640] frame P:4474  Avg QP:25.52  size: 11324
[libx264 @ 0x5d5e24889640] frame B:11377 Avg QP:31.74  size:  2436
[libx264 @ 0x5d5e24889640] consecutive B-frames:  3.8%  1.3%  4.4% 90.5%
[libx264 @ 0x5d5e24889640] mb I  I16..4:  7.2% 16.0% 76.8%
[libx264 @ 0x5d5e24889640] mb P  I16..4:  0.7%  1.1%  1.6%  P16..4: 12.5%  4.6%  5.2%  0.0%  0.0%    skip:74.4%
[libx264 @ 0x5d5e24889640] mb B  I16..4:  0.1%  0.0%  0.1%  B16..8:  4.3%  2.8%  0.8%  direct: 1.1%  skip:90.8%  L0:39.1% L1:44.5% BI:16.4%
[libx264 @ 0x5d5e24889640] 8x8 transform intra:25.9% inter:23.9%
[libx264 @ 0x5d5e24889640] coded y,u,v intra: 76.0% 27.0% 19.0% inter: 4.2% 0.6% 0.5%
[libx264 @ 0x5d5e24889640] i16 v,h,dc,p: 30% 59%  6%  4%
[libx264 @ 0x5d5e24889640] i8 v,h,dc,ddl,ddr,vr,hd,vl,hu: 18% 44% 15%  3%  3%  3%  4%  3%  6%
[libx264 @ 0x5d5e24889640] i4 v,h,dc,ddl,ddr,vr,hd,vl,hu: 35% 30%  9%  4%  4%  5%  5%  4%  5%
[libx264 @ 0x5d5e24889640] Weighted P-Frames: Y:0.0% UV:0.0%
[libx264 @ 0x5d5e24889640] kb/s:1300.35
Starting pipeline in PROD mode
GStreamer bindings not installed; expecting external RTSP server (rtsp-simple-server / MediaMTX)
